
<svg viewBox="0 0 185 384" fill="none" xmlns="http://www.w3.org/2000/svg">
<path d="M91.5 4.5C79.8301 4.23398 70 11.7 65.5 13.5C61 15.3 52 9.49869 52 9.49869C52 9.49869 51.001 8.55855 37.5 2.99834C23.999 -2.56187 39.2136 24.8528 40 27.9982C40.5 29.9982 46 33.4984 47.7142 40.9976C49.4551 48.6138 48.4284 49.9984 45.2142 55.9984C42 61.9984 47.2088 74.9984 48.5 77.4984C49.7912 79.9984 51.4463 82.2255 54 84C56.5537 85.7745 56 93 54 100.999C55.0149 105.465 52.7641 113.097 48.5 116.499C42.5774 121.224 42.5537 144.28 39.0537 161.78C35.8734 177.681 36.8434 191.124 32 194.999C27.6188 198.503 18.8226 206.744 13.0537 215.28C5.65381 226.229 2.12769 235.625 1.05354 240.28C-0.446341 246.78 -0.252703 264.06 1.05359 273.779C2.80092 286.78 4.81562 298.765 9.05407 312.78C13.6417 327.95 18.7149 335.361 21.0536 339.78C23.1991 343.834 32.4749 355.837 40.0536 363.78C48.3682 372.494 55.91 376.752 56.5 377.499C57.6278 378.927 88 385.499 93.5541 382.78C102.554 380.78 129 383.499 143 373.999C157 364.5 162.231 350.146 172.054 334.28C182.047 315.356 180.554 311.78 182.085 301.28C182.899 295.703 183.876 264.519 184.5 260.999C185.29 256.54 175.61 220.812 172.054 215.28C167.554 208.28 155 194.999 154 192.779C153 190.559 152.554 185.28 149.054 169.28C147.554 155.78 142.656 139.28 142.656 139.28C142.656 139.28 142.947 133.25 139.554 124.28C137.098 117.787 132.553 112.768 129.054 102.274C128.071 95.6313 126.362 88.5607 131.5 79.9984C136 72.4992 139.554 60.9984 135 52.4977C131.5 47.4984 132.946 43.4982 136 33.4982C139.054 23.4982 159 0.00176771 148 0C137 -0.0017674 129.321 14.7092 119 14.9985C108.679 15.2878 115 7.5 91.5 4.5Z" fill="black"/>
</svg>
