<svg  viewBox="0 0 147 167" fill="none" xmlns="http://www.w3.org/2000/svg">
<path fill-rule="evenodd" clip-rule="evenodd" d="M130.305 28.1563C130.305 28.1563 130.221 27.0218 129.882 26.3342C129.585 25.681 128.78 25.131 128.441 24.7528C128.102 24.3746 127.89 24.5809 127.678 25.0622C127.424 25.5435 126.238 28.8095 126.238 28.8095C126.238 28.8095 126.365 30.1159 126.407 30.5628C126.449 31.0097 126.492 31.7317 127 31.4567C127.509 31.216 129.119 30.3222 129.585 29.9096C130.051 29.4971 130.432 29.4627 130.517 29.0845C130.56 28.6376 130.305 28.1563 130.305 28.1563ZM73.9078 28.8095C73.9078 28.8095 72.679 25.5435 72.4671 25.0622C72.2129 24.5809 72.001 24.3746 71.7044 24.7528C71.3654 25.131 70.6027 25.681 70.2637 26.3342C69.9248 27.0218 69.84 28.1563 69.84 28.1563C69.84 28.1563 69.5858 28.672 69.6282 29.0501C69.7129 29.4627 70.0943 29.4627 70.5603 29.8752C71.0264 30.2878 72.6366 31.1816 73.1451 31.4223C73.6535 31.6973 73.6959 30.9754 73.7383 30.5284C73.7806 30.1159 73.9078 28.8439 73.9078 28.8095ZM147 23.2401C143.059 22.3806 140.983 24.6153 137.848 27.2968C135.475 29.3252 132.805 31.7317 130.517 33.8288C123.314 40.4296 114.034 45.1395 108.526 47.6147C108.611 47.7866 108.653 47.9929 108.653 48.1304C109.373 48.3711 109.755 48.5773 109.755 48.5773C109.755 48.5773 112.085 47.9585 113.441 46.9959C114.797 46.0333 117.17 44.3144 119.416 44.3831C121.661 44.4519 125.39 42.9392 126.068 42.3204C126.746 41.7016 127.466 43.0767 126.492 44.7613C125.517 46.4459 124.204 51.9465 120.094 53.1497C115.983 54.353 113.399 52.7716 112.212 54.1467C111.026 55.5563 109.501 56.0376 109.755 58.7191C109.967 61.1256 109.67 64.9073 110.306 67.692C110.433 68.0358 110.517 68.3796 110.602 68.6546C110.814 69.2734 110.941 69.8922 111.195 70.5111C111.45 71.233 112.255 71.8862 112.085 72.6769C112.043 72.6769 111.958 72.6769 111.916 72.6426C111.958 73.1926 112.382 73.6739 112.297 74.2927C112.212 74.2584 112.043 74.2584 111.916 74.224C111.958 74.4646 111.958 74.7053 112 74.9459C112.128 75.3241 112.255 75.7367 112.212 76.0804C112.17 76.0804 112.17 76.0461 112.128 76.0461C112.128 76.2867 112.17 76.5274 112.17 76.768C112.382 77.2149 112.594 77.6619 112.509 78.0744C112.467 78.0744 112.297 78.0057 112.255 78.0057C112.551 78.6932 113.017 79.5527 112.678 80.2403C112.594 80.1715 112.339 80.1371 112.212 79.9996C112.085 80.6872 112.424 81.4435 112.382 82.1655C112.297 82.0967 112.085 82.0624 111.916 81.9592C111.916 82.028 111.916 82.0624 111.873 82.1311C111.873 82.8187 112.339 83.8844 111.661 84.297C111.619 84.2282 111.534 84.1595 111.45 84.0907C111.407 84.1939 111.407 84.297 111.365 84.4001C111.45 85.1565 111.577 86.4285 110.856 86.0159C110.772 86.2222 110.687 86.4285 110.602 86.6348C110.645 87.3911 110.772 88.3537 110.348 88.6631C110.178 88.5256 110.009 88.3537 109.882 88.1474C109.797 88.2849 109.712 88.4568 109.628 88.5944C109.543 88.9381 109.501 89.3507 109.416 89.6945C109.373 89.6257 109.246 89.5226 109.119 89.4194C109.034 89.5226 108.992 89.6257 108.907 89.7289C108.865 90.2445 108.865 90.829 108.568 91.104C108.526 91.0009 108.484 90.9321 108.441 90.829C108.399 91.1728 108.356 91.4478 108.356 91.5853C108.272 92.4104 108.272 93.2011 108.145 93.9918C107.975 94.8513 108.526 95.7795 108.441 96.7422C108.356 96.6046 108.06 96.3296 107.975 96.1921C108.06 96.7078 108.568 97.3953 108.229 97.8767C108.187 97.8423 107.975 97.636 108.06 97.7048C108.06 98.2548 107.89 99.0455 107.848 99.3893C107.806 100.077 108.145 100.73 107.848 101.418C107.763 101.452 107.678 101.418 107.594 101.452C107.636 102.105 107.594 103.102 107.255 103.687C107.17 103.652 107.001 103.652 106.916 103.618C106.534 104.202 106.873 104.959 106.492 105.543C106.407 105.474 106.153 105.406 106.026 105.302C105.814 105.853 105.856 106.712 105.39 107.159C105.306 107.056 105.094 106.987 104.967 106.884C104.543 107.365 104.755 108.5 103.992 108.74C103.992 108.568 103.992 108.397 103.992 108.225C103.102 109.359 102.043 110.459 100.687 111.525C100.687 111.525 99.882 111.903 99.6278 113.485C99.4159 115.066 98.06 125.449 96.7888 129.093C95.7295 132.152 95.1363 137.103 95.221 138.512C95.3058 139.922 94.2465 142.775 94.4583 145.01C94.6702 147.245 95.4753 155.014 96.8736 156.699C98.0176 158.074 100.56 160.102 94.7973 160.034C89.2889 159.965 91.238 159.759 90.9838 152.161C90.7719 144.563 90.094 143.772 89.5855 142.019C89.077 140.266 87.8906 131.98 87.8906 129.23C87.8906 126.48 87.4669 121.289 87.2127 120.085C86.9161 118.882 87.0432 117.301 85.8568 117.163C84.6703 117.026 82.5517 117.576 82.7212 119.845C82.8907 122.079 81.9161 130.227 81.7466 132.118C81.5771 134.009 81.7466 134.353 82.5093 136.243C83.272 138.134 83.5686 141.847 83.0178 144.735C82.5093 147.657 82.2551 147.76 82.4246 150.339C82.5941 152.917 83.9076 157.008 84.7127 159.38C85.0517 160.412 88.9076 162.475 81.7043 162.475C76.9162 162.475 78.9501 159.243 79.2043 156.733C79.4162 154.224 79.2043 147.76 77.9331 145.182C76.662 142.638 76.0688 140.094 76.0688 138.616C76.0688 137.172 73.5264 129.436 72.9332 127.442C72.34 125.449 71.4502 120.36 70.857 119.707C70.2637 119.054 54.7979 125.139 40.7302 119.467C40.7302 119.467 37.0015 129.54 32.8914 133.974C28.7813 138.409 27.6372 142.225 27.5525 145.319C27.4677 148.414 28.6118 151.405 30.0948 155.324C32.51 161.821 34.5015 163.506 35.3066 165.122C35.6879 165.912 34.4591 166.566 32.0863 166.6H31.9592C31.4931 166.6 30.9846 166.566 30.4338 166.497C27.0016 166.119 27.3406 164.537 26.9592 161.821C26.5779 159.105 24.883 153.33 22.9339 149.376C20.9847 145.423 19.7559 142.054 18.8238 140.506C17.256 137.928 18.4424 135.659 20.3068 133.596C22.1712 131.534 24.1203 125.517 24.9254 123.523C25.7304 121.529 26.2389 116.235 25.6881 117.094C24.1203 119.501 19.8407 127.924 18.6543 129.746C17.4678 131.568 14.6289 135.04 13.6967 135.831C12.8069 136.622 11.9594 139.303 10.9849 141.675C10.0103 144.047 8.52729 148.551 8.52729 151.68C8.52729 154.842 8.14593 160.377 8.23067 162.371C8.31542 164.365 10.1798 166.325 5.01038 166.325C-0.159046 166.325 1.87483 164.503 2.76465 162.509C3.65447 160.515 5.30699 154.842 5.6036 145.663C5.9002 136.484 6.11206 135.35 5.98495 134.009C5.81546 132.668 7.08662 132.049 8.44254 129.952C9.79845 127.821 11.451 119.948 10.5188 117.06C9.62896 114.207 8.14593 110.562 6.49341 105.509C5.64596 102.93 4.84089 99.4581 5.9002 95.9858C5.94257 94.9201 5.9002 93.8199 5.47647 92.7886C5.4341 92.8573 5.26462 92.9605 5.17988 93.0292C5.01039 92.8573 4.96801 92.6854 4.84089 92.4792C4.79852 92.5479 4.6714 92.6511 4.62903 92.7198C4.41717 92.4792 4.41716 92.101 4.37479 91.7916C4.33242 91.8603 4.29005 91.9291 4.29005 91.9979C4.12057 91.6885 4.0782 91.3447 3.90871 91.0353C3.86633 91.104 3.82396 91.2071 3.82396 91.2759C3.65447 90.8977 3.6121 90.4164 3.44261 90.0383C3.40024 90.1758 3.31548 90.3133 3.31548 90.4508C2.89176 90.1758 2.89177 89.3851 2.55279 89.0069C2.46804 89.2132 2.51041 89.4194 2.46804 89.6257C2.17143 89.2476 2.17144 88.6975 1.95958 88.2849C1.9172 88.5256 1.9172 88.7319 1.83245 88.9725C1.23924 88.7663 1.23925 88.0099 0.942644 87.5974C0.8579 87.838 0.900264 88.0787 0.81552 88.3193C0.476541 87.6661 0.518919 86.7723 0.476546 86.0847C0.518919 86.3597 0.13756 86.7723 0.13756 86.7723C0.0528154 86.1191 -0.031924 85.6034 0.0104483 84.9502C0.0104483 84.6752 0.22231 84.1251 0.434171 83.7813C0.434171 83.7469 0.476546 83.7469 0.476546 83.7469C0.518919 83.7125 0.518911 83.6782 0.561283 83.6438L0.603658 83.6094C2.17143 82.3374 7.29848 87.288 8.86626 86.7035C10.9001 85.9472 23.1034 81.9248 36.7472 82.5437C40.6455 82.4749 44.2471 82.7843 47.4251 83.1969C55.73 84.2282 65.6028 83.7469 71.5349 80.3434C77.467 76.9399 81.7043 77.0774 83.2297 76.6993C86.5347 75.9085 86.4076 68.5171 88.4415 63.0852C90.094 58.5816 91.1109 56.5876 89.3737 55.4187C87.6364 54.2499 88.7804 53.8717 84.289 53.9061C78.3992 53.9748 74.3739 49.1618 72.5518 44.1768C72.5518 44.1768 72.34 43.1799 74.2891 43.5236C76.2382 43.8674 80.8992 44.5894 82.467 44.7613C84.0347 44.9332 86.7466 46.8928 88.1025 47.546C89.4584 48.1992 90.433 48.5086 91.238 48.1992C91.238 48.1992 91.2804 48.1648 91.4075 48.096C91.4075 47.9241 91.3651 47.6835 91.4075 47.4428C85.8991 44.9676 76.662 40.292 69.501 33.7257C67.2129 31.6286 64.5435 29.222 62.1706 27.1937C59.0351 24.4778 56.9588 22.2775 53.0182 23.137C55.5606 21.5556 59.6283 22.0369 63.0181 24.7184C63.0181 24.7184 63.696 25.3372 63.6537 24.9591C63.3994 23.3089 61.6622 20.9711 60.8995 19.3897C58.3148 13.8203 56.4927 5.70689 60.6452 1.71894C58.9927 5.63813 59.2469 8.66348 60.0944 11.5513C60.6452 13.4765 61.4079 15.9518 62.8062 18.5646C64.2469 21.2118 65.4757 23.4808 66.3655 24.7528C67.2553 26.0248 66.7045 26.4717 67.2553 26.0248C67.8062 25.5779 69.4163 21.6931 69.9671 21.2118C70.518 20.7648 71.0688 20.0085 71.2807 19.1147C71.4925 18.2208 71.1536 18.0145 71.7044 16.0206C72.2976 13.9922 73.0603 11.9295 73.3993 11.2419C73.6959 10.5887 73.484 14.8173 73.1027 16.3987C73.484 14.9548 74.3315 13.7172 74.84 12.342C75.3908 10.9669 77.2975 8.42282 78.3569 8.31969C77.0857 10.2105 76.1959 13.2015 75.3908 15.4017C74.6705 17.3957 73.5264 19.7678 73.9078 22.14C74.3739 24.8559 75.3484 27.6406 76.2806 30.3222C76.7043 31.5598 77.1704 32.7974 77.9331 33.9663C78.5687 34.8602 80.2636 35.8915 80.6873 36.6479C79.1619 33.6913 74.4162 26.7124 78.9077 24.7528C77.3399 26.3342 78.6111 29.7033 79.5856 31.5942C80.5602 33.4163 81.4077 35.6853 83.1026 37.0604C83.7381 37.5761 85.772 40.1545 87.3822 41.0484C87.4669 41.0827 87.594 41.1515 87.6788 41.1859C83.1873 33.8632 83.8229 25.681 86.111 18.7709C86.1534 18.1864 86.1534 17.5332 86.111 16.88C86.111 14.5766 84.628 12.9608 84.1195 11.6888C83.9924 11.6888 86.3652 12.3076 87.3398 14.6454C87.3822 14.7142 87.3822 14.8173 87.4245 14.8861C88.3567 11.8951 88.8652 9.04164 88.5686 5.19121C88.3991 3.36913 88.6533 1.61581 87.5093 0C90.6872 0.790714 90.8991 11.5169 89.755 16.88C89.5008 17.9802 89.1618 19.0803 88.7804 20.2148C89.5855 19.4241 92.5092 17.2238 97.0854 18.6333C90.3482 18.9771 88.3991 22.1056 86.6195 28.6032C86.3228 32.5568 87.2974 37.1636 91.577 43.0767C92.8058 43.6268 93.8651 44.1768 94.2465 44.4175C94.6702 44.7269 97.0007 45.6208 99.204 46.4115C99.6701 46.4115 100.136 46.4115 100.602 46.4459H100.645C102.89 45.6551 105.306 44.7269 105.687 44.4175C106.026 44.1768 107.128 43.6612 108.356 43.0767C112.636 37.1636 113.611 32.5568 113.314 28.6032C111.534 22.14 109.628 19.0115 102.848 18.6333C107.424 17.2238 110.348 19.4241 111.153 20.2148C110.772 19.0803 110.433 17.9802 110.178 16.88C109.034 11.5169 109.246 0.790714 112.424 0C111.28 1.58143 111.492 3.33475 111.365 5.19121C111.068 9.04164 111.534 11.8951 112.509 14.8861C112.551 14.8173 112.551 14.7142 112.594 14.6454C113.568 12.3076 115.941 11.6888 115.814 11.6888C115.348 12.9608 113.822 14.5766 113.822 16.88C113.78 17.5332 113.822 18.1864 113.822 18.7709C116.153 25.681 116.746 33.8632 112.255 41.1859C112.339 41.1515 112.467 41.0827 112.551 41.0484C114.161 40.1545 116.195 37.5761 116.831 37.0604C118.526 35.7196 119.373 33.4163 120.348 31.5942C121.322 29.7033 122.636 26.3342 121.026 24.7528C125.517 26.7124 120.772 33.6913 119.246 36.6479C119.627 35.8915 121.365 34.8946 122 33.9663C122.763 32.7974 123.229 31.5598 123.653 30.3222C124.585 27.6406 125.56 24.8559 126.026 22.14C126.449 19.7678 125.305 17.3957 124.543 15.4017C123.738 13.2359 122.848 10.2105 121.577 8.31969C122.594 8.4572 124.543 10.9669 125.094 12.342C125.602 13.7172 126.407 14.9548 126.831 16.3987C126.449 14.8173 126.195 10.5887 126.534 11.2419C126.831 11.8951 127.636 13.9922 128.229 16.0206C128.78 18.0145 128.441 18.2208 128.653 19.1147C128.865 20.0085 129.415 20.7648 129.966 21.2118C130.517 21.6587 132.127 25.5435 132.678 26.0248C133.229 26.4717 132.678 26.0248 133.568 24.7528C134.458 23.4808 135.687 21.2118 137.127 18.5646C138.526 15.9174 139.288 13.4765 139.839 11.5513C140.687 8.66348 140.941 5.60376 139.288 1.71894C143.441 5.67251 141.619 13.7859 139.034 19.3897C138.271 20.9711 136.576 23.3089 136.28 24.9591C136.237 25.3716 136.915 24.7184 136.915 24.7184C140.348 22.1744 144.458 21.6931 147 23.2401Z" fill="#16112C"/>
</svg>
