<svg viewBox="0 0 124 118" fill="none" xmlns="http://www.w3.org/2000/svg">
<path fill-rule="evenodd" clip-rule="evenodd" d="M54.7696 21.3315C57.1597 19.422 60.9663 15.7285 61.645 12.6381C62.4712 8.76879 59.5204 1.13065 60.4056 0C63.2974 5.47735 64.0942 6.75875 64.0646 13.5175C66.4843 12.8391 68.4614 11.1557 69.5532 9.4723C70.94 7.36176 70.0843 4.52258 69.9958 2.03516C73.2417 7.21101 71.1171 11.9848 67.3105 14.4471C66.0122 15.3014 65.4515 15.427 64.1237 16.1305L56.6581 22.4622C60.5532 21.9345 62.7368 19.9999 65.7466 18.2411C63.0319 25.8541 43.9106 25.9043 42.5237 29.6229C43.6155 30.2762 43.8515 29.6983 45.2974 29.0953C47.8056 28.04 50.9335 26.7586 53.7368 26.432C54.0319 28.7435 52.8515 30.4269 51.5827 31.9847C49.6647 34.2963 48.927 34.0952 44.9138 33.8691C42.7007 37.6882 42.7598 35.7535 44.8253 39.7987C45.7696 41.6831 46.6253 43.7937 47.8056 45.5776L48.0712 45.9293C48.1007 45.8791 48.1597 46.055 48.2188 46.1052C54.0614 47.4369 64.3597 48.3665 70.763 48.869C80.2941 49.6228 85.7531 48.869 94.9302 48.1153C98.7072 47.8137 102.514 48.9946 105.524 50.2007C109.124 51.6579 110.717 52.7132 112.812 55.0499C115.202 57.7383 121.606 65.678 122.845 68.6428C120.897 67.7131 117.474 65.3262 115.792 64.7986C113.697 67.6377 113.815 66.9342 114.347 70.8789C114.642 73.1653 114.966 75.4266 115.173 77.713C115.468 80.9542 115.615 81.0296 117.533 83.0899C118.832 84.4718 120.396 85.7029 121.488 87.1853C122.668 88.7682 123.583 97.8385 123.789 100.351C124.025 103.492 123.347 109.497 123.583 111.381C124.055 115.15 124.232 115.753 118.802 116.431C122.668 107.21 122.107 102.185 117.297 93.7682C116.383 92.1853 115.438 90.7783 114.022 89.6728C109.832 86.3813 106.527 82.1854 102.75 78.5422L100.419 78.6929C101.156 80.6025 102.897 82.2105 104.225 83.3914C109.655 88.1904 109.478 87.5371 107.56 93.115C106.232 96.9843 105.111 100.703 103.34 104.447C102.455 106.331 101.511 107.788 100.743 109.698C99.9171 111.783 99.7695 113.592 98.4122 115.175C97.0843 116.708 95.6089 117.562 92.4515 116.934C93.0712 116.18 93.9269 115.527 94.8122 114.622C97.0253 112.286 98.4712 109.22 99.4744 106.18C101.097 101.205 101.392 96.2305 101.215 90.9039L94.8417 86.4818C94.0154 85.8286 94.0449 85.8788 93.2482 85.3512L90.1204 83.0396C87.2876 80.6527 84.8679 82.4115 78.4646 82.2859C74.8056 82.2105 71.2646 81.909 67.6941 81.6075C67.163 87.7381 66.2778 94.0446 65.5401 100.225C65.1564 103.442 65.186 106.607 64.9204 109.798C64.6548 112.889 63.9466 115.979 59.4614 114.974C63.8876 111.959 62.5302 104.095 61.763 98.5421C60.9368 92.5873 60.1106 86.909 58.9892 81.0296C57.6024 83.0396 51.8188 114.572 50.2548 116.155C49.3991 117.034 46.3597 117.336 44.7368 117.085C44.6483 116.733 44.0286 117.235 45.327 116.105C51.5532 110.778 49.8417 100.929 50.2548 94.0697C50.5204 89.7984 49.7237 85.2004 48.986 81.0547C48.6024 78.8939 47.363 78.3663 45.7696 76.909C42.1401 73.6427 36.1204 70.1503 34.5565 68.7935C32.6384 67.1352 30.2778 65.3011 28.6548 63.3162C26.8844 61.1302 25.763 54.0951 26.4417 51.4318C27.5335 47.1354 28.2417 43.8188 28.4778 39.4218C28.6843 35.653 28.2417 36.5575 27.2385 33.5927C23.1958 33.4922 23.1663 33.844 21.0122 31.7586C19.8319 30.6028 18.6221 28.6681 18.445 26.7837C20.1565 27.035 22.4581 27.7888 24.0516 28.3164C25.4975 28.7938 27.6516 30.0249 28.9499 29.8742C29.2745 26.6581 8.50076 25.8792 5.81552 18.3416C7.11388 18.8692 8.58929 20.2009 10.0057 20.9546C11.4221 21.7084 13.0155 22.2612 14.8745 22.5627C13.6942 21.3064 11.245 19.623 9.7106 18.1657C7.91061 16.4823 6.16962 15.6783 4.04503 14.422C0.297494 12.1858 -1.5025 6.83412 1.53684 2.08541C1.44831 4.72359 0.533558 7.56276 2.09749 9.72355C3.13028 11.1808 5.22536 12.9899 7.46798 13.5929C7.43847 10.9296 7.73356 8.21602 8.38274 5.7286C8.85487 3.9447 9.68109 1.00502 11.6581 0.0753762C10.8319 4.1457 8.79585 8.59291 10.0057 12.9647C10.8319 15.9295 14.3139 19.5727 16.7926 21.432L17.0581 19.0702C18.445 22.8139 18.1204 23.2662 26.8844 25.6531C25.763 22.2863 24.0516 21.3064 26.7958 17.9647C26.7073 22.437 26.9729 21.8089 29.304 24.9496C31.2516 27.638 30.927 28.2913 35.5893 28.2913C40.5761 28.3164 40.1335 27.9646 42.1991 24.9245C44.1466 22.0602 45.0319 22.2612 44.6483 18.0652C47.304 20.8039 45.8286 21.9094 44.5893 25.6531C46.6843 25.0752 48.927 24.2963 50.9335 23.5174C54.386 22.1607 53.0286 21.8089 54.563 19.2964L54.7696 21.3315Z" fill="#0C1925"/>
</svg>
