<svg  viewBox="0 0 28 32" fill="none" xmlns="http://www.w3.org/2000/svg">
<path d="M7.92074 29.4943C8.47951 30.2292 11.1806 30.8922 11.4049 30.93C14.7206 31.49 14.4288 31.28 16.8611 31.035C18.2716 30.893 20.148 29.0751 20.2466 29.0751C20.3452 29.0751 27.8722 21.4797 26.2945 16.3699C25.0323 12.282 18.406 10.9801 15.7107 10.4201C15.4697 10.5251 13.2481 10.6721 12.7485 10.4201C12.124 10.1051 6.355 12.0731 6.05918 12.0731C5.76336 12.0731 3.33106 14.165 2.21352 17.2098C1.09598 20.2547 3.91073 22.0396 4.79819 24.3845C5.68565 26.7294 7.36197 28.7593 7.92074 29.4943Z" fill="#4F4531"/>
<path d="M3.77684 3.94619C3.54676 3.29289 3.29037 2.25242 3.44814 1.21647C3.57998 0.350805 3.50617 0.0890658 3.46239 0.0211182C3.45497 0.0168038 3.45017 0.0140645 3.44814 0.0129862C3.42635 0.00138407 3.44068 -0.0125766 3.46239 0.0211182C3.69582 0.156835 6.52014 1.85112 6.99798 2.42776C7.65536 2.35776 7.85567 2.93119 8.90748 2.96618C9.93908 3.00051 10.2551 3.26971 10.5838 3.35137C11.274 3.50303 11.2083 3.59636 14.1994 3.59636C17.1904 3.59636 16.9604 3.38622 18.0122 2.86124C19.064 2.33627 20.3459 3.14123 20.806 3.17623C21.1461 3.20209 20.9272 2.85835 21.3319 2.96618L21.4623 3.02923C21.5187 2.99979 21.5285 2.92514 21.3319 2.79113C22.4276 1.9745 24.6354 0.257312 24.7143 0.481302C24.8129 0.761289 24.6613 2.14203 24.5531 2.68625C24.4449 3.23047 24.1556 4.02948 24.1556 4.33112C24.1556 4.51959 25.901 6.62939 25.5063 9.14756C25.3122 10.3858 24.5171 12.1108 24.1556 12.2974C25.3936 12.9624 27.6756 15.0057 27.8697 16.9522C28.1335 19.5972 28.1029 21.0604 26.7522 23.2519C25.419 25.415 24.0569 26.4718 23.7283 26.4718C23.3996 26.4718 22.7751 26.2618 22.6436 26.3668C22.5121 26.4718 20.6963 29.0267 20.5648 29.0966C20.4334 29.1666 20.1047 28.9351 20.2033 28.6551C20.3019 28.3751 22.2492 25.9952 22.2492 25.8902C22.2492 25.7852 23.4355 24.3153 23.7642 23.3703C24.0182 22.6401 24.3559 22.0404 24.5531 21.1304C24.7503 20.2205 24.8489 20.0455 24.8489 19.2405C24.8489 18.4355 24.9225 18.5137 24.7143 17.5822C24.5062 16.6506 24.3251 16.3356 24.0929 15.8456C23.8939 15.4257 23.5341 14.8816 23.2383 14.4807C22.8768 13.9907 22.2523 13.1157 22.2523 13.1157C21.6168 13.4073 19.8791 13.3956 18.6695 13.1157C17.46 12.8357 16.2403 11.8341 15.6785 11.2257C15.4189 10.9229 15.3169 10.978 15.1526 10.5258C14.9882 10.0735 14.4295 9.38976 14.4295 9.14756C14.1665 8.95096 13.7423 8.9157 13.6406 9.0423C13.6406 9.0423 12.8556 10.1758 12.786 10.5258C12.7165 10.8758 12.786 11.0159 12.6217 11.2609C12.4573 11.5059 11.8985 12.4857 11.8985 12.4857C11.3179 12.9873 9.99524 13.444 9.3019 13.5006C8.60856 13.5572 6.14649 13.4306 6.04788 13.3607C5.94927 13.2907 3.67822 15.0273 3.41527 16.9872C3.15232 18.9471 3.02084 20.557 4.10552 22.342C5.19019 24.1269 6.99798 27.9417 7.62249 28.3967C8.247 28.8517 7.78684 29.3766 7.45815 29.0966C7.1952 28.8727 6.58164 28.14 6.30774 27.8017L5.7161 26.9267L5.42028 26.4368C4.89437 26.5068 3.73081 26.4082 3.41527 26.2402C3.02084 26.0302 2.3306 25.7018 1.11445 23.1469C-0.101702 20.592 -0.0359645 18.2821 0.0297734 17.7922C0.0955112 17.3022 0.460165 15.8456 0.854592 15.0407C1.24902 14.2357 2.56069 12.5074 3.77684 12.3324C4.03979 12.3324 4.13839 11.4009 3.77684 11.0859C3.4153 10.7709 2.92533 9.44094 2.92533 8.00601C2.92533 6.57107 2.74455 6.39608 2.92533 6.0111C3.37409 5.05544 3.22115 4.29618 3.77684 3.94619Z" fill="#1D1405"/>
<path d="M13.7392 10C13.4252 10 13.7128 7.66692 13.1704 6.64644C12.628 5.62596 12 5.24641 12 5.24641C12.067 4.87344 16.1362 4.99607 15.9965 5.14573C15.8786 5.27199 15.2959 5.85274 14.8544 6.79668C14.1596 8.28218 14.0968 10 13.7392 10Z" fill="#51360C"/>
<path d="M1.96738 19.7658C1.20482 17.6099 1.92355 15.3676 2.49328 14.656C2.1646 15.0177 1.65869 15.265 1.21168 17.2809C0.652904 19.8008 2.75628 22.6356 2.72341 22.4956C2.69054 22.3557 2.92058 22.4606 1.96738 19.7658Z" fill="#352405"/>
<path d="M25.9359 19.7658C26.6985 17.6099 25.9798 15.3676 25.41 14.656C25.7387 15.0177 26.2446 15.265 26.6916 17.2809C27.2504 19.8008 25.147 22.6356 25.1799 22.4956C25.2128 22.3557 24.9827 22.4606 25.9359 19.7658Z" fill="#352405"/>
<path d="M8.05322 17.9723C7.39584 18.0073 6.48646 17.3189 6.17969 16.9923C6.50838 17.1206 7.22492 17.6712 8.25043 17.5872C9.53232 17.4822 10.2226 16.6073 9.86101 17.1323C9.59663 17.5162 8.97298 17.9233 8.05322 17.9723Z" fill="#020201"/>
<path d="M18.7671 24.2721C18.1097 24.3071 17.2003 23.6187 16.8936 23.2921C17.2222 23.4204 17.9388 23.971 18.9643 23.887C20.2462 23.782 20.9364 22.9071 20.5749 23.4321C20.3105 23.816 19.6869 24.2231 18.7671 24.2721Z" fill="#020201"/>
<path d="M14.0347 24.2721C13.3773 24.3071 12.4679 23.6187 12.1611 23.2921C12.4898 23.4204 13.2064 23.971 14.2319 23.887C15.5138 23.782 16.204 22.9071 15.8425 23.4321C15.5781 23.816 14.9544 24.2231 14.0347 24.2721Z" fill="#020201"/>
<path d="M9.23583 24.2721C8.57845 24.3071 7.66908 23.6187 7.3623 23.2921C7.69099 23.4204 8.40754 23.971 9.43305 23.887C10.7149 23.782 11.4052 22.9071 11.0436 23.4321C10.7793 23.816 10.1556 24.2231 9.23583 24.2721Z" fill="#020201"/>
<path d="M9.2228 21.0246C8.66217 21.0513 7.88663 20.5254 7.625 20.2758C7.90532 20.3739 8.51641 20.7946 9.39099 20.7304C10.4842 20.6502 11.0729 19.9817 10.7645 20.3828C10.5391 20.6761 10.0072 20.9872 9.2228 21.0246Z" fill="#020201"/>
<path d="M15.6662 27.2543C15.1055 27.2811 14.33 26.7551 14.0684 26.5055C14.3487 26.6036 14.9598 27.0243 15.8344 26.9601C16.9276 26.8799 17.5163 26.2114 17.2079 26.6126C16.9824 26.9059 16.4506 27.2169 15.6662 27.2543Z" fill="#020201"/>
<path d="M11.5246 27.2543C10.9639 27.2811 10.1884 26.7551 9.92676 26.5055C10.2071 26.6036 10.8182 27.0243 11.6928 26.9601C12.786 26.8799 13.3746 26.2114 13.0663 26.6126C12.8408 26.9059 12.309 27.2169 11.5246 27.2543Z" fill="#020201"/>
<path d="M18.6896 21.0246C18.129 21.0513 17.3534 20.5254 17.0918 20.2758C17.3721 20.3739 17.9832 20.7946 18.8578 20.7304C19.951 20.6502 20.5397 19.9817 20.2313 20.3828C20.0059 20.6761 19.474 20.9872 18.6896 21.0246Z" fill="#020201"/>
<path d="M13.9562 21.0944C13.3956 21.1212 12.62 20.5952 12.3584 20.3456C12.6387 20.4437 13.2498 20.8644 14.1244 20.8002C15.2176 20.72 15.8063 20.0515 15.4979 20.4526C15.2725 20.7459 14.7406 21.057 13.9562 21.0944Z" fill="#020201"/>
<path d="M16.2046 18.0421C15.5472 18.0771 14.6378 17.3887 14.3311 17.0621C14.6597 17.1904 15.3763 17.741 16.4018 17.6571C17.6837 17.5521 18.3739 16.6771 18.0124 17.2021C17.748 17.586 17.1244 17.9932 16.2046 18.0421Z" fill="#020201"/>
<path d="M20.6089 18.0421C19.9515 18.0771 19.0421 17.3887 18.7354 17.0621C19.064 17.1904 19.7806 17.741 20.8061 17.6571C22.088 17.5521 22.7782 16.6771 22.4167 17.2021C22.1523 17.586 21.5286 17.9932 20.6089 18.0421Z" fill="#020201"/>
<path d="M12.1284 18.0421C11.471 18.0771 10.5617 17.3887 10.2549 17.0621C10.5836 17.1904 11.3001 17.741 12.3256 17.6571C13.6075 17.5521 14.2978 16.6771 13.9362 17.2021C13.6718 17.586 13.0482 17.9932 12.1284 18.0421Z" fill="#020201"/>
<ellipse cx="20.1163" cy="8.56628" rx="5.85067" ry="6.08972" fill="#533302"/>
<ellipse cx="7.72502" cy="8.39115" rx="5.8178" ry="6.05472" fill="#533302"/>
<ellipse cx="20.0169" cy="8.70606" rx="5.16042" ry="5.24976" fill="#666668"/>
<ellipse cx="8.053" cy="8.21607" rx="5.16042" ry="5.24976" fill="#666668"/>
<ellipse cx="8.77669" cy="7.83118" rx="3.71419" ry="3.81483" fill="#A06F1F"/>
<ellipse cx="19.2943" cy="7.97108" rx="3.71419" ry="3.81483" fill="#A06F1F"/>
<ellipse cx="9.26963" cy="7.90119" rx="2.10361" ry="2.2049" fill="black"/>
<ellipse cx="18.9972" cy="7.90119" rx="2.10361" ry="2.2049" fill="black"/>
<ellipse cx="8.08542" cy="6.43126" rx="0.723116" ry="0.734966" fill="#F7FBF9"/>
<ellipse cx="20.1821" cy="6.43126" rx="0.723116" ry="0.734966" fill="#F7FBF9"/>
<path d="M14.4168 12.8709C14.3684 12.9742 14.351 13.2208 14.1867 13.3608C14.0881 13.4658 14.0373 13.4576 13.9237 13.3608C13.7594 13.2208 13.7662 13.0081 13.6608 12.8709C13.5775 12.7625 13.4306 12.5909 13.3321 12.4509C13.0982 11.977 12.9223 11.4784 12.8718 11.1559C12.839 10.946 12.8499 10.9277 12.839 10.841C12.801 10.5404 12.8101 10.2256 12.9377 9.79101C13.0117 9.53854 13.0576 9.3299 13.2006 9.19603C13.2759 9.12553 13.3513 9.03483 13.4636 8.95104C13.5342 8.89836 13.6045 8.84424 13.6937 8.77605C13.7338 8.74532 13.7874 8.7456 13.845 8.74919L14.0881 8.70605C14.1614 8.75948 14.351 8.72578 14.4496 8.81105C14.5338 8.88384 14.6236 8.94695 14.7126 9.02104C14.8153 9.10655 14.925 9.19603 14.9887 9.30103C15.2648 9.75601 15.2845 9.896 15.2845 10.211C15.2845 10.375 15.3178 10.8503 15.2385 11.1559C15.1592 11.4615 15.0071 11.7567 14.9755 11.8909C14.9469 12.0131 14.8514 12.2502 14.7126 12.4509C14.5332 12.7101 14.4496 12.8009 14.4168 12.8709Z" fill="#4B3B0F"/>
<path d="M14.6596 31.5449C16.8618 31.02 18.6148 31.5101 18.9654 31.93C19.1495 31.93 18.7025 31.1547 18.4724 30.985C18.0451 30.6699 17.8018 30.4811 16.4345 30.5651C15.0672 30.6491 14.2432 31.3467 14.0022 31.685C14.2323 31.685 14.3935 31.6084 14.6596 31.5449Z" fill="#1E1A14"/>
<path d="M13.4205 31.615C11.2183 31.09 9.46527 31.5801 9.11467 32.0001C8.9306 32.0001 9.37762 31.2247 9.60772 31.055C10.035 30.74 10.2782 30.5512 11.6456 30.6352C13.0129 30.7192 13.8368 31.4168 14.0779 31.7551C13.8478 31.7551 13.6865 31.6784 13.4205 31.615Z" fill="#1E1A14"/>
</svg>
