<svg viewBox="0 0 207 108" fill="none" xmlns="http://www.w3.org/2000/svg">
<path fill-rule="evenodd" clip-rule="evenodd" d="M153.474 67.681C154.088 67.8951 154.22 68.2805 154.658 68.7088C156.324 70.2076 156.149 70.6786 157.07 73.1195C159.262 78.7722 159.087 76.4598 160.753 78.6866C156.456 78.7722 154.965 77.5303 154.176 76.3313C153.299 75.0038 151.983 73.248 152.378 71.6636C152.729 71.1497 152.816 71.6207 153.474 71.2781C153.211 70.5502 153.036 70.7643 152.334 70.336C153.606 69.5652 153.123 70.6786 153.474 67.681ZM3.15718 79.1576C2.85024 82.3265 1.97324 85.838 1.53474 89.1783C1.14009 92.0474 1.09624 96.2869 0.920845 97.486C0.701596 98.7279 0.219249 98.685 0 99.67C1.66629 100.655 3.24488 100.698 4.07803 102.582C5.30582 105.408 5.30582 103.952 7.23521 104.766C9.12075 105.58 8.94536 103.181 7.76141 101.597C6.79672 100.355 7.05981 100.013 6.53362 98.5994C4.07803 92.0902 8.06836 79.7143 7.98066 76.8023C8.33146 76.5026 9.12075 73.8047 9.4277 73.1624C9.99775 71.9633 10.9186 70.8071 11.3132 69.865C12.0148 69.2226 13.7688 67.3812 14.1635 66.6104L14.7335 66.0537C16.0929 64.8547 17.5399 64.5121 18.987 63.4415C20.4778 62.3709 21.4425 61.1719 22.6265 60.0156L25.3013 57.5747C25.6521 57.2321 25.8275 56.9752 26.1783 56.6754C27.0553 55.8618 28.9409 53.8063 29.8617 53.4209C30.1248 56.1615 28.6339 58.3455 27.6254 60.7008C26.6607 62.9704 25.5644 65.1973 24.7313 67.4669C23.942 69.5224 26.1783 72.5628 27.143 74.4042C28.897 77.7016 31.3964 83.9538 33.2381 87.8079C34.2467 89.9063 37.3162 97.6573 38.9825 99.1133C40.4295 100.312 40.4733 100.526 42.4027 100.698C43.2797 100.783 43.6305 101.212 44.2883 101.297C45.3407 101.469 44.946 101.04 46.13 101.597C46.8316 101.94 47.1824 102.154 48.0155 102.239C48.2348 99.7984 47.2701 99.7984 46.0423 98.7279C45.5161 98.2568 45.1214 97.9142 44.6829 97.4432L44.0252 96.7152C43.7182 96.3297 43.6305 96.1585 43.4113 95.8587C41.9642 93.8032 40.5172 91.2766 39.2894 88.8785C38.0616 86.5232 36.8338 83.7825 35.8691 81.2131C34.8167 78.344 34.2467 75.1751 34.9044 71.8348C35.2552 70.0363 35.1237 69.0085 35.913 67.4241L41.1749 55.9903C45.3407 46.5263 44.9899 48.7103 49.8572 49.267C64.1084 50.9371 68.1426 46.5263 74.3692 47.083C85.9017 48.1108 83.4461 49.0957 83.2269 54.106C83.0515 58.5168 82.306 66.3535 82.5253 69.9935C82.613 71.8349 83.3146 72.9483 83.3584 74.704C83.49 78.8579 81.3413 98.1711 83.8408 100.655C85.7702 100.355 84.8055 98.7707 86.9541 101.469C87.4365 102.068 87.7873 102.967 88.1819 103.396C89.1028 104.338 92.2161 104.381 93.2246 103.653C93.4439 101.94 91.953 101.04 91.076 100.055C89.5412 98.3853 88.2258 100.269 87.2611 94.0173C86.8226 91.2338 87.4365 89.3924 87.3049 86.7802L87.0418 83.6112C86.8664 78.6866 87.4803 77.8729 88.8397 73.4621C90.5936 67.7666 89.9797 58.7738 92.523 53.5493C93.4877 53.7634 93.3562 53.9347 93.8824 54.6199C96.5572 58.0458 96.908 61.386 100.197 65.1972C101.644 66.8674 102.872 68.88 104.099 70.9784C105.415 73.248 106.204 74.8753 107.695 77.0593C109.098 79.072 110.414 80.6136 111.422 83.0117C113.966 89.1354 117.342 96.4582 117.737 103.224C117.781 104.166 117.737 104.466 118.57 104.809C118.877 104.252 118.921 103.867 119.008 103.181C120.675 103.781 121.376 108.02 125.016 107.335C126.507 107.036 129.971 106.65 127.866 104.595C127.252 103.995 126.55 103.61 125.937 103.01C125.235 102.282 121.376 95.773 120.718 94.5312C117.693 88.7929 116.29 87.2084 114.36 80.6564C113.79 78.6866 113.922 76.2885 113.396 74.7897C112.694 72.6913 112.475 71.6636 111.51 69.8222C108.791 64.6834 107.169 60.658 105.897 54.8768C105.371 52.5216 104.582 50.9799 107.169 50.1235C108.835 49.5668 110.151 51.0656 111.905 51.7936C113.922 52.6072 114.886 53.378 115.983 54.7912C117.912 57.3178 119.491 60.3154 121.245 63.2274C122.999 66.0965 125.016 68.4518 126.331 71.8777C128.041 76.3313 128.918 73.4621 129.269 75.8602C129.576 77.8301 129.576 80.0141 129.839 82.0268C130.409 86.0522 131.374 90.0776 131.505 94.1886C131.593 97.4003 132.251 99.4987 135.189 100.741C136.636 101.383 136.68 101.126 137.644 100.484C139.135 99.4558 139.705 100.098 140.889 96.8436C141.459 95.2163 141.854 93.2037 142.38 91.4907C143.389 88.0649 144.66 84.5105 145.932 81.3844C146.765 79.3289 147.291 78.5581 148.3 76.888C149.177 75.4748 149.791 73.6763 150.799 72.3916C151.019 74.4042 150.01 77.1449 154.044 79.2433C159.219 81.9411 165.051 78.5153 169.085 84.4249C169.699 85.367 170.488 86.6089 170.795 87.8079C171.146 89.3496 170.313 91.4479 171.803 92.0046C173.382 92.0046 172.286 86.9943 171.935 86.1806C171.496 85.0672 169.479 82.1553 169.742 81.3416C172.944 80.9562 178.03 82.0268 180.705 83.5256C183.687 85.1957 184.038 87.551 185.221 90.2488C185.528 90.934 185.572 90.9768 186.318 91.0625C187.677 88.3218 184.038 84.0823 182.064 82.712C178.863 80.4852 176.057 80.0997 171.453 79.8C167.813 79.5859 163.867 77.8729 162.2 75.8174C161.367 74.8325 157.815 67.9808 157.903 66.8245C159.613 66.6961 160.885 68.4946 162.551 68.2805C163.121 68.2377 162.946 68.1521 163.121 68.0236C162.551 66.9958 162.025 67.681 161.806 66.6532C164.174 66.3963 168.208 67.1243 170.707 67.3812C172.417 67.5525 178.469 68.6231 179.521 67.681C179.302 66.225 175.969 66.6104 174.829 66.5676C169.874 66.1822 165.094 65.0688 160.183 64.5977C159.789 64.5549 159.175 64.5549 158.912 64.2123C158.517 63.3987 159.175 60.7436 159.569 59.93C160.753 57.4891 162.507 55.7761 164.919 54.4914C167.243 53.2496 167.462 54.5771 168.778 55.3051C170.97 56.5898 175.487 56.8039 178.249 56.3328C179.784 56.0331 181.275 55.6048 182.854 55.3907C184.958 55.091 186.668 56.0759 187.721 55.7761C189.036 51.5366 175.575 56.8039 170.926 53.2924C165.226 49.0101 173.25 44.428 177.197 43.0576L184.958 40.7024C187.94 40.3169 190.615 41.1306 194.912 40.2741C199.253 39.4177 204.515 37.0196 206.752 33.1655C207.497 31.9236 206.489 31.3669 204.735 33.6365C203.156 35.692 200.306 37.6619 197.543 38.3042C195.526 38.7753 192.457 38.9894 190.308 38.861C187.239 38.6897 186.932 37.1052 187.414 34.1504C188.116 29.9537 190.44 27.1702 192.895 23.9585C194.781 21.5175 197.149 20.447 198.333 17.5778C198.727 16.6357 199.341 15.6508 199.56 14.7943C199.429 14.3232 199.078 13.9378 198.508 13.8094C197.587 15.9077 196.535 17.7919 195.219 19.2907C194.079 20.5754 191.097 23.102 189.826 24.8149C187.633 27.7269 185.002 30.9386 184.169 34.6214C183.204 38.9466 184.038 37.8332 179.872 39.1607C173.996 41.0449 172.549 41.8158 168.646 45.627C167.813 46.4407 167.243 46.9545 166.585 47.9823C164.349 51.5366 165.533 49.9522 162.113 52.3503C158.035 55.2194 158.868 55.819 153.474 56.9752C149.747 57.746 152.071 56.29 149.791 57.0608C147.204 57.9173 145.143 58.4312 144.31 55.0053C143.082 50.1663 144.924 51.1084 147.116 49.8665C155.886 44.9847 153.606 51.7507 164.437 45.6698C165.752 44.9419 167.243 43.8285 168.12 42.6294C168.997 41.4732 168.69 41.4732 168.646 41.3019L168.559 41.0021C167.112 40.8736 165.533 44.3423 162.244 45.5842C161.718 45.7555 161.367 45.8411 160.885 46.0124C158.122 46.8689 156.193 46.4835 153.606 45.2416C151.545 44.2995 151.282 42.9292 151.238 40.06C151.062 34.236 153.474 27.9838 159.964 26.9133C161.148 26.6991 164.7 25.5429 165.182 24.5152C163.428 24.3867 161.411 25.2432 160.052 25.7999C159.306 26.0996 156.237 27.6413 155.316 25.9283C154.965 25.1147 155.842 23.9585 156.324 23.5731C156.938 23.102 157.947 22.6309 158.736 22.2455C159.876 21.646 163.56 20.7467 162.902 19.2907C161.455 18.3914 159.525 20.19 158.473 20.7467C156.895 21.5604 156.544 21.8173 155.491 22.8879L155.316 23.0592C152.246 26.0568 152.553 30.125 150.843 32.1377C149.44 33.8078 148.738 33.7222 148.695 36.42C148.651 38.5184 148.826 40.6167 148.738 42.715C148.607 44.9419 148.125 46.0981 146.897 47.1258L143.257 49.9094L142.95 49.6096C141.196 47.811 134.356 37.1052 131.593 33.6793C129.313 30.853 127.384 28.8831 125.103 26.2281L121.113 21.9029C119.14 20.0187 114.36 13.2527 112.475 10.8117C107.958 5.11624 105.634 5.45882 99.3636 2.8466C97.6096 2.11861 95.9433 1.56191 93.8824 1.21932C91.5583 0.79109 82.6568 -0.0653768 80.5959 0.277209C79.8943 -0.0225535 77.351 -0.0225528 76.3863 0.0202704L67.8795 0.191564C67.0902 0.234387 65.9501 0.105916 65.4677 0.491325C62.6175 0.105916 49.2433 2.93225 45.5599 3.53178C42.2712 4.08848 38.8948 4.55954 35.6499 5.15906C32.2296 5.80141 29.8617 7.12893 27.5377 8.58492C23.6789 11.0258 18.8554 12.9957 16.4437 14.6658C13.1111 17.0211 10.1293 20.6183 9.2523 24.7293C9.12075 25.4145 8.85765 26.485 9.03305 27.213C9.20845 28.0267 10.1293 28.4977 10.8309 28.0267C11.3132 27.7269 11.3571 26.3994 11.4886 25.8855C11.5763 25.5429 11.7079 25.1147 11.7956 24.8149C12.0148 24.2582 12.0587 24.0869 12.4972 23.9156C12.9795 28.1123 13.3303 32.3946 14.6897 36.0774C15.9175 39.5033 18.4169 42.4153 19.6009 45.7555C20.434 48.1536 18.8993 49.4811 17.6715 50.5945C16.5314 51.6651 15.2597 52.9926 13.9881 54.1488C13.5934 54.5343 13.418 54.6199 13.0234 54.9625C12.6287 55.2623 12.4972 55.4764 12.1025 55.819C11.4009 56.3757 10.7432 56.9324 9.99775 57.4462C8.9015 58.2171 6.35822 59.93 5.91972 60.7865C5.52507 61.0862 5.48122 61.2147 5.39352 61.857C5.34967 62.3281 5.34967 62.7563 5.61277 63.0561L5.52507 63.8697C5.52507 66.8245 5.39352 69.6509 4.60423 72.3059L3.37643 78.1299L3.15718 79.1576ZM148.958 60.7436C149.484 61.0434 149.791 61.7714 150.405 61.7714C151.457 61.7714 151.983 59.4161 155.053 58.5596C156.807 58.0458 158.605 57.8745 156.851 59.9728C155.228 61.8999 156.237 62.1996 155.447 63.7413C152.203 64.3408 154.088 63.9125 152.553 65.6255L149.966 65.497C149.484 64.769 148.607 61.5144 148.958 60.7436Z" fill="#1B1731"/>
</svg>
